<?xml version="1.0" encoding="UTF-8"?>
<svg id="Layer_1" data-name="Layer 1" xmlns="http://www.w3.org/2000/svg" viewBox="0 0 950 950">
  <defs>
    <style>
      .cls-1, .cls-2 {
        fill: #29aae1;
      }

      .cls-2, .cls-3 {
        fill-rule: evenodd;
      }

      .cls-4 {
        fill: #fbed21;
      }

      .cls-3 {
        fill: #eb2027;
      }
    </style>
  </defs>
  <polygon class="cls-4" points="45.87 258.3 38.96 258.3 38.96 663.56 368.38 663.56 368.38 258.3 45.87 258.3"/>
  <path class="cls-1" d="m89.43,528.44c10.96-5.68,23.96-11.14,35.44-11.14,22.49,0,26.17,11.61,37.56,11.61s21.48-11.61,41.24-11.61,29.86,11.61,41.24,11.61,15.07-11.61,37.56-11.61c11.48,0,24.48,5.47,35.44,11.14v28.08c-10.55-5.82-22.16-11.83-33.6-11.83-19.65,0-23.82,12.04-39.46,12.04-17.76,0-21.43-11.9-41.19-11.9s-23.42,11.9-41.19,11.9c-15.63,0-19.8-12.04-39.45-12.04-11.44,0-23.05,6.01-33.6,11.83v-28.08Z"/>
  <path class="cls-1" d="m89.43,491.66v-28.09c10.96-5.67,23.96-11.14,35.44-11.14,22.49,0,26.17,11.61,37.56,11.61s21.48-11.61,41.24-11.61,29.86,11.61,41.24,11.61,15.07-11.61,37.56-11.61c11.48,0,24.48,5.47,35.44,11.14v28.09c-10.55-5.83-22.16-11.83-33.6-11.83-19.65,0-23.82,12.04-39.46,12.04-17.76,0-21.43-11.9-41.19-11.9s-23.42,11.9-41.19,11.9c-15.63,0-19.8-12.04-39.45-12.04-11.44,0-23.05,6-33.6,11.83Z"/>
  <path class="cls-1" d="m89.43,398.7c10.96-5.67,23.96-11.14,35.44-11.14,22.49,0,26.17,11.61,37.56,11.61s21.48-11.61,41.24-11.61,29.86,11.61,41.24,11.61,15.07-11.61,37.56-11.61c11.48,0,24.48,5.47,35.44,11.14v28.09c-10.55-5.82-22.16-11.83-33.6-11.83-19.65,0-23.82,12.04-39.46,12.04-17.76,0-21.43-11.9-41.19-11.9s-23.42,11.9-41.19,11.9c-15.63,0-19.8-12.04-39.45-12.04-11.44,0-23.05,6-33.6,11.83v-28.09Z"/>
  <polygon class="cls-3" points="235.81 304.79 179.26 447.77 280.08 403.52 201.27 617.06 229.46 461.61 127.26 510.71 187.38 304.79 235.81 304.79"/>
  <g>
    <path class="cls-2" d="m449.77,407.88v55.32h21.38c15.39,0,25.68-1.02,30.87-3.06,5.19-2.04,9.26-5.23,12.21-9.57,2.94-4.35,4.42-9.4,4.42-15.16,0-7.09-2.08-12.94-6.21-17.55s-9.36-7.49-15.7-8.64c-4.67-.89-14.03-1.34-28.11-1.34h-18.87Zm-39.3,161.34v-194.14h62.85c23.81,0,39.33.97,46.57,2.91,11.1,2.91,20.42,9.25,27.91,19.01,7.5,9.75,11.25,22.35,11.25,37.81,0,11.93-2.15,21.94-6.47,30.07s-9.8,14.51-16.45,19.14-13.42,7.7-20.28,9.2c-9.35,1.85-22.86,2.78-40.57,2.78h-25.51v73.21h-39.3Z"/>
    <polygon class="cls-2" points="592.11 569.22 592.11 376.7 631.41 376.7 631.41 536.4 728.75 536.4 728.75 569.22 592.11 569.22"/>
    <polygon class="cls-2" points="756.77 569.22 756.77 375.08 794.84 375.08 874.72 505.18 874.72 375.08 911.04 375.08 911.04 569.22 871.79 569.22 793.11 441.59 793.11 569.22 756.77 569.22"/>
  </g>
</svg>